<svg xmlns="http://www.w3.org/2000/svg" data-name="Layer 1" viewBox="0 0 512 512" x="0px" y="0px"><title>File Coding</title><path d="M169.94,211.9C154.1,211.9,142,219.341,142,239.38v33.48c0,20.039,12.1,27.478,27.94,27.478S198,292.9,198,272.86V239.38C198,219.341,185.779,211.9,169.94,211.9ZM182,272.86c0,9.479-4.76,13.8-12.561,13.8-7.919,0-12.439-4.32-12.439-13.8V239.38c0-9.479,4.52-13.8,12.439-13.8,7.8,0,12.561,4.319,12.561,13.8Z"></path><path d="M236.12,211.662a4.769,4.769,0,0,0-3.2,1.2l-14.14,10.8a6.729,6.729,0,0,0-2.989,5.639c0,3.12,2.045,6.24,5.044,6.24a4.875,4.875,0,0,0,3.1-1.08L228,230.622V294.7c0,3.239,3.54,4.92,7.5,4.92,3.84,0,7.5-1.681,7.5-4.92v-78C243,213.582,239.36,211.662,236.12,211.662Z"></path><path d="M295.94,211.9C280.1,211.9,268,219.341,268,239.38v33.48c0,20.039,12.1,27.478,27.94,27.478S324,292.9,324,272.86V239.38C324,219.341,311.779,211.9,295.94,211.9ZM308,272.86c0,9.479-4.76,13.8-12.561,13.8-7.919,0-12.439-4.32-12.439-13.8V239.38c0-9.479,4.52-13.8,12.439-13.8,7.8,0,12.561,4.319,12.561,13.8Z"></path><path d="M346.72,235.541a3.841,3.841,0,0,0,2.66-1.08l3.62-3.839V294.7c0,3.239,4.041,4.92,8,4.92,3.84,0,8-1.681,8-4.92v-78c0-3.12-3.7-5.04-6.939-5.04a4.853,4.853,0,0,0-3.232,1.2l-14.154,10.8a6.737,6.737,0,0,0-3,5.639C341.678,232.421,343.72,235.541,346.72,235.541Z"></path><path d="M344.476,21.443A8.125,8.125,0,0,0,338.837,19H76.7c-4.418,0-7.7,3.819-7.7,8.237V484.763c0,4.418,3.281,8.237,7.7,8.237H435.3c4.418,0,7.7-3.819,7.7-8.237V123.082a8,8,0,0,0-2.211-5.734ZM348,47.693,415.276,114H348ZM427,477H85V35H332v87.464c0,4.418,3.656,7.536,8.074,7.536H427Z"></path></svg>