<svg xmlns="http://www.w3.org/2000/svg" viewBox="0 0 100 100"><path d="M78.2 5H21.8c-4.2 0-7.6 3.4-7.6 7.6v74.9c0 4.2 3.4 7.6 7.6 7.6h56.4c4.2 0 7.6-3.4 7.6-7.6V12.6C85.7 8.4 82.3 5 78.2 5zm2.4 82.4c0 1.4-1.1 2.5-2.5 2.5H21.8c-1.4 0-2.5-1.1-2.5-2.5V12.6c0-1.4 1.1-2.5 2.5-2.5h56.4c1.4 0 2.5 1.1 2.5 2.5v74.8z"/><path d="M35.7 38.6c5.6 0 10.2-4.6 10.2-10.2s-4.6-10.2-10.2-10.2-10.2 4.6-10.2 10.2 4.6 10.2 10.2 10.2zm0-15.3c2.8 0 5.1 2.3 5.1 5.1s-2.3 5.1-5.1 5.1-5.1-2.3-5.1-5.1 2.3-5.1 5.1-5.1zM73.4 19.7H52.6c-1.4 0-2.5 1.1-2.5 2.5s1.1 2.5 2.5 2.5h20.8c1.4 0 2.5-1.1 2.5-2.5s-1.1-2.5-2.5-2.5zM73.4 32.1H52.6c-1.4 0-2.5 1.1-2.5 2.5s1.1 2.5 2.5 2.5h20.8c1.4 0 2.5-1.1 2.5-2.5s-1.1-2.5-2.5-2.5zM73.4 46.2H27.5c-1.4 0-2.5 1.1-2.5 2.5s1.1 2.5 2.5 2.5h45.9c1.4 0 2.5-1.1 2.5-2.5s-1.1-2.5-2.5-2.5zM73.4 60.3H27.5c-1.4 0-2.5 1.1-2.5 2.5s1.1 2.5 2.5 2.5h45.9c1.4 0 2.5-1.1 2.5-2.5s-1.1-2.5-2.5-2.5zM73.4 74H27.5c-1.4 0-2.5 1.1-2.5 2.5s1.1 2.5 2.5 2.5h45.9c1.4 0 2.5-1.1 2.5-2.5S74.8 74 73.4 74z"/></svg>